<svg width="256" height="29" viewBox="0 0 256 29" fill="none" xmlns="http://www.w3.org/2000/svg">
<path d="M51.3 0L48.5 4.9H45.8L44.9 6.3H47.7L41.6 16.7C40.3 18.9 41.2 20.9 43.7 20.9C45.5 20.9 47.4 19.6 49.3 17.8C49.3 21.6 54.6 22.3 57.9 18.3H58.6C60.4 18.3 63.2 17.2 64.8 15.4C64.6 15 64.1 14.5 63.7 14.4L63.5 14.6C62.1 16.1 60.5 16.8 58.9 16.8L61.7 12C63.5 8.9 61.8 5.9 59 5.9C56.7 5.9 54.9 6.8 53.1 9.8L51.6 12.4L50.4 14.5L50.2 14.7C48 17.2 45.9 19.2 44.6 19.2C43.9 19.2 43.6 18.7 44.3 17.6L50.8 6.4H53.3L54 4.9H51.5L54.3 0H51.3ZM58.8 7.8C59.8 7.9 60.2 9.1 59.2 10.8L57 14.5H56.9C55.9 14.5 55.1 15.3 55.1 16.3C55.1 16.7 55.2 17 55.4 17.3V17.4C54 19.8 50.5 19.4 52.3 16.3L54.6 12.4L56.1 10C57 8.4 58.1 7.8 58.8 7.8ZM80.8 0L78 4.9H75.3L74.4 6.3H77.2L71 16.7C69.7 18.9 70.6 20.9 73.1 20.9C74.3 20.9 75.6 20.3 77 19.3L76.2 20.6H79.2L83.8 12.7C88.4 6.9 90.5 7.7 89.2 9.9L85.3 16.6C84 18.8 84.9 20.8 87.4 20.8C89.2 20.8 91.2 19.4 93.1 17.6C93.2 19.5 94.8 20.8 97.2 20.8C100.6 20.8 104 18.2 106.5 15.3C106.3 14.9 105.8 14.4 105.4 14.3L105.2 14.5C103 17 100.2 19 98.1 19C96.2 19 95.1 17.9 96.5 15.4L96.8 14.9C98.7 15.7 102.4 15.3 104.7 11.5L105.1 10.8C106.7 8 105.2 6 102.7 6C100.3 6 98.3 7.3 97 9.4L94.1 14.4L93.9 14.6C91.7 17.1 89.6 19.1 88.3 19.1C87.6 19.1 87.3 18.6 87.9 17.5L92.3 10C93.6 7.7 92.4 6.1 90.7 6.1C89.4 6.1 88 6.8 86.5 8.4L91.3 0.100002H88.3L79.9 14.5L79.7 14.7C77.5 17.2 75.4 19.2 74.1 19.2C73.4 19.2 73.1 18.7 73.8 17.6L80.3 6.4H82.8L83.7 5H81.2L84 0.100002L80.8 0ZM102.1 8.2C103.1 8.1 103.6 9.1 102.6 10.8L102.2 11.5C100.8 13.9 98.8 13.9 97.7 13.5L99.6 10.1C100.3 8.9 101.3 8.3 102.1 8.2ZM146.4 2.8C144.7 4.3 144.5 6 145.6 7.4L145.9 7.7C144.6 9.6 142.8 12.1 140.8 14.4L140.6 14.6C139.2 16.1 137.6 16.8 136 16.8L138.8 12C140.6 8.9 138.9 5.9 136.1 5.9C133.8 5.9 132 6.8 130.2 9.8L128.7 12.4L127.5 14.5L127.3 14.7C124.8 17.5 122.7 19.4 120.3 20.4L127.1 9H125.3C125.3 7.8 124 6.1 122.1 6.1C120.5 6.1 118.2 7.4 116.9 9.5L112.7 16.7C111.4 18.9 112.3 20.9 114.8 20.9C115.6 20.9 116.7 20.5 117.7 19.9L116.9 21.3C112.8 22.5 110.3 24.2 110.3 26.4C110.3 29.3 114.7 29.9 116.9 26.2L119.2 22.3C121.6 21.6 124 20.2 126.4 17.8C126.4 21.6 131.7 22.4 135 18.3H135.7C137.5 18.3 140.3 17.2 141.9 15.4C143.3 13.7 144.5 12.2 146.9 9L147.3 9.5C147.7 10 147.8 10.6 147.5 11.2L144.3 16.7C143 18.9 143.9 20.9 146.4 20.9C147.9 20.9 149.6 19.9 151.2 18.5C151.1 19.9 152.1 20.9 153.8 20.9C154.6 20.9 155.7 20.5 156.7 19.9L155.9 21.3C151.8 22.5 149.3 24.2 149.3 26.4C149.3 29.3 153.7 29.9 155.9 26.2L158.2 22.3C160.7 21.5 163.1 20.1 165.6 17.7C165.7 19.6 167.3 20.9 169.7 20.9C172.2 20.9 174.6 19.5 176.7 17.7C176.6 21.6 182 22.4 185.3 18.3H186C186.9 18.3 188.2 18 189.4 17.4C188.6 19.5 189.3 20.9 191.1 20.9C192.8 20.9 194.6 19.4 196.1 18C195.8 19.6 196.8 20.9 198.7 20.9C201.2 20.9 204.1 18.3 206.6 15.4C208.3 13.4 209.8 11.4 210.9 10C209.7 13.1 210.3 18.7 207.5 18.7C206.5 18.7 206.1 17.6 206.1 17.6L204.2 18.6C204.2 18.6 204.8 21 207.5 21C207.8 21 208.1 21 208.3 20.9H208.4C211.5 20.5 214.5 18.1 216.8 15.5C216.6 15 216.1 14.6 215.7 14.5L215.5 14.7C214.4 15.9 213.2 17 211.9 17.9C212.9 15.1 212.7 10.7 214.5 6.9L212.2 5.7C211 7.4 208.2 11.3 205.5 14.4L205.3 14.6C203.1 17.1 201 19.1 199.7 19.1C199 19.1 198.7 18.6 199.4 17.5L205.8 6.3H202.8L197.4 15.6C195.1 17.7 193.3 18.8 192.8 18.6C192 18.3 192.8 17.2 193.2 16.5L199.1 6.3H196.1L191.4 14.4L191.2 14.6C189.8 16.1 188.2 16.8 186.6 16.8L189.4 12C191.2 8.9 189.5 5.9 186.7 5.9C184.4 5.9 182.6 6.8 180.8 9.8L179.3 12.4L178.1 14.5L177.9 14.7C175.7 17.2 172.9 19.2 170.8 19.2C168.9 19.2 167.8 18.1 169.2 15.6L169.5 15.1C171.4 15.9 175.1 15.5 177.4 11.7L177.8 11C179.4 8.2 177.9 6.2 175.4 6.2C173 6.2 171 7.5 169.7 9.6L166.8 14.6L166.6 14.8C164.1 17.6 162 19.5 159.6 20.5L166.4 9.1H164.6C164.6 7.9 163.3 6.2 161.4 6.2C159.8 6.2 157.5 7.5 156.2 9.6L153.3 14.5L153.1 14.7C150.9 17.2 148.8 19.2 147.5 19.2C146.8 19.2 146.5 18.7 147.2 17.6L150.2 12.4C151.2 10.6 150.8 9.5 149.8 8.4L148.1 6.4C147.7 5.9 147.7 5.3 148.3 4.7L146.4 2.8ZM136.1 7.8C137.1 7.9 137.6 9.1 136.5 10.8L134.3 14.5H134.2C133.2 14.5 132.4 15.3 132.4 16.3C132.4 16.7 132.5 17 132.7 17.3V17.4C131.3 19.8 127.8 19.4 129.6 16.3L131.9 12.4L133.4 10C134.3 8.4 135.3 7.8 136.1 7.8ZM186.3 7.8C187.3 7.9 187.8 9.1 186.7 10.8L184.5 14.5H184.4C183.4 14.5 182.6 15.3 182.6 16.3C182.6 16.7 182.7 17 182.9 17.3V17.4C181.5 19.8 178 19.4 179.8 16.3L182.1 12.4L183.6 10C184.4 8.4 185.5 7.8 186.3 7.8ZM174.6 8.2C175.6 8.1 176.1 9.1 175.1 10.8L174.7 11.5C173.2 13.9 171.3 13.9 170.2 13.5L172.1 10.1C172.8 8.9 173.8 8.3 174.6 8.2ZM122.2 8.4C123.2 8.4 123.9 9.3 123 10.8L120.7 14.8C118.9 17.7 117 19.1 115.8 19.1C115.1 19.1 114.8 18.6 115.5 17.5L119.7 10.2C120.4 9 121.4 8.4 122.2 8.4ZM161.1 8.4C162.1 8.4 162.8 9.3 161.9 10.8L159.6 14.8C157.8 17.7 155.9 19.1 154.7 19.1C154 19.1 153.7 18.6 154.4 17.5L158.6 10.2C159.3 9 160.3 8.4 161.1 8.4ZM115.8 23.3L114.4 25.7C113.8 26.8 112.7 26.6 112.7 25.8C112.7 25.1 113.5 24.2 115.8 23.3ZM154.7 23.3L153.3 25.7C152.7 26.8 151.6 26.6 151.6 25.8C151.7 25.1 152.4 24.2 154.7 23.3ZM0 11.7H28.9V13.6H0V11.7ZM227.1 11.7H256V13.6H227.1V11.7Z" fill="#766458"/>
</svg>
